<svg xmlns="http://www.w3.org/2000/svg" width="12.136" height="21" viewBox="0 0 12.136 21">
    <path id="dollar-currency-symbol" d="M87.807,13.707A4.274,4.274,0,0,0,85.945,9.99a11.143,11.143,0,0,0-3.264-1.376c-2.356-.714-3.04-1.09-3.04-2.217,0-1.255,1.631-1.7,3.027-1.7a5.838,5.838,0,0,1,2.913.785l1.44-2.231A8.255,8.255,0,0,0,83.49,2.083V0H80.833V2.229c-2.362.52-3.85,2.063-3.85,4.167A3.988,3.988,0,0,0,78.8,9.863a11.147,11.147,0,0,0,3.112,1.294c2.311.7,3.249,1.124,3.239,2.534v.01c0,1.183-1.568,1.6-2.911,1.6a4.981,4.981,0,0,1-3.431-1.383l-1.93,1.826a7.409,7.409,0,0,0,3.955,2.079V20H83.49V17.873C86.115,17.5,87.8,15.918,87.807,13.707Z" transform="translate(-76.171 0.5)"  stroke-width="1"/>
  </svg>