<svg xmlns="http://www.w3.org/2000/svg" width="18.788" height="20" viewBox="0 0 18.788 20">
    <g id="euro" transform="translate(-12.8)">
      <g id="Group_11555" data-name="Group 11555" transform="translate(12.8)">
        <path id="Path_1157" data-name="Path 1157" d="M27.042,16.162a5.314,5.314,0,0,1-2.626.606,4.953,4.953,0,0,1-4.646-2.929h6.465V11.414H19.063a5.337,5.337,0,0,1-.1-1.313V9.091h7.273V6.667H19.568a5.939,5.939,0,0,1,2.02-2.424,4.812,4.812,0,0,1,2.929-.909,5.732,5.732,0,0,1,2.727.505,9.282,9.282,0,0,1,2.323,1.919l2.02-2.525A8.934,8.934,0,0,0,24.416,0a8.112,8.112,0,0,0-5.354,1.919,9.185,9.185,0,0,0-3.333,4.848H12.8V8.99h2.424V10a5.76,5.76,0,0,0,.1,1.313H12.8v2.424h3.131A8.869,8.869,0,0,0,24.416,20a8.261,8.261,0,0,0,6.97-3.232l-2.02-2.424A11.3,11.3,0,0,1,27.042,16.162Z" transform="translate(-12.8)" />
      </g>
    </g>
  </svg>