<?xml version="1.0" encoding="UTF-8"?>
<svg xmlns="http://www.w3.org/2000/svg" viewBox="0 0 226.88 72">
  <defs>
    <style>
      .cls-1 {
        opacity: .25;
      }

      .cls-1, .cls-2, .cls-3, .cls-4, .cls-5 {
        fill: #fff;
        stroke-width: 0px;
      }

      .cls-2, .cls-6 {
        opacity: .5;
      }

      .cls-3 {
        fill-rule: evenodd;
      }

      .cls-7 {
        isolation: isolate;
      }

      .cls-4 {
        opacity: 0;
      }

      .cls-6 {
        mix-blend-mode: multiply;
      }
    </style>
  </defs>
  <g class="cls-7">
    <g id="katman_6" data-name="katman 6">
      <g>
        <path class="cls-5" d="m77.67,21.99c-1.61-3.7-3.84-6.95-6.63-9.66-2.76-2.68-5.98-4.83-9.58-6.39-3.66-1.59-7.6-2.39-11.72-2.39s-8.28.8-11.97,2.38c-3.66,1.57-6.88,3.73-9.59,6.44-2.71,2.71-4.88,5.96-6.45,9.65-1.58,3.71-2.37,7.72-2.37,11.9s.8,8.28,2.38,11.97c1.57,3.66,3.73,6.88,6.44,9.58,2.7,2.71,5.93,4.87,9.59,6.44,3.68,1.58,7.71,2.38,11.97,2.38s8.07-.8,11.72-2.39c3.6-1.56,6.82-3.71,9.58-6.39,2.79-2.71,5.02-5.93,6.63-9.59,1.63-3.7,2.45-7.74,2.45-12s-.82-8.21-2.44-11.93Zm-11.06,11.93c0,2.28-.45,4.46-1.33,6.48-.91,2.07-2.14,3.89-3.66,5.41-1.52,1.52-3.34,2.75-5.41,3.65-2.04.9-4.16,1.33-6.48,1.33s-4.47-.45-6.48-1.33c-2.07-.91-3.89-2.14-5.41-3.65-1.52-1.52-2.75-3.34-3.65-5.41-.88-2.01-1.33-4.2-1.33-6.48s.44-4.44,1.33-6.48c.91-2.07,2.14-3.89,3.65-5.41,1.52-1.52,3.34-2.75,5.41-3.65,2.02-.88,4.2-1.33,6.48-1.33s4.46.45,6.48,1.33c2.07.91,3.89,2.14,5.41,3.66,1.52,1.52,2.75,3.34,3.65,5.41.88,2.02,1.33,4.2,1.33,6.48Z"/>
        <polygon class="cls-5" points="0 10.06 0 22.12 2.25 21.14 2.25 64.3 15.7 64.3 15.7 3.55 0 10.06"/>
        <g class="cls-6">
          <g>
            <path class="cls-4" d="m105.83,60.08c-12.04,5.92-26.59.97-32.51-11.05-5.92-12.03-.97-26.57,11.07-32.5,6.44-3.17,25.52-9.09,31.7-6.62-8.58-5.24-31.5-.25-41.19,4.52-15.04,7.4-21.23,25.59-13.83,40.63,7.4,15.03,25.6,21.21,40.63,13.81,9.69-4.77,27.62-19.89,28.7-29.89-1.8,6.41-18.13,17.92-24.57,21.1Z"/>
            <path class="cls-2" d="m111.78,57.15c-12.04,5.92-26.59.97-32.51-11.05-5.92-12.03-.97-26.57,11.07-32.5,6.44-3.17,19.57-6.16,25.74-3.68-8.58-5.24-25.54-3.18-35.23,1.59-15.04,7.4-21.23,25.59-13.83,40.63,7.4,15.03,25.6,21.21,40.63,13.81,9.69-4.77,21.67-16.96,22.74-26.95-1.8,6.41-12.17,14.99-18.61,18.16Z"/>
            <path class="cls-5" d="m117.74,54.21c-12.04,5.92-26.59.97-32.51-11.05-5.92-12.03-.97-26.57,11.07-32.5,6.44-3.17,13.61-3.23,19.78-.75-8.58-5.24-19.58-6.12-29.27-1.34-15.04,7.4-21.23,25.59-13.83,40.63,7.4,15.03,25.6,21.21,40.63,13.81,9.69-4.77,15.71-14.03,16.78-24.02-1.8,6.41-6.21,12.06-12.65,15.23Z"/>
          </g>
        </g>
        <path class="cls-5" d="m117.74,54.21c-12.04,5.92-26.59.97-32.51-11.05-5.92-12.03-.97-26.57,11.07-32.5,6.44-3.17,13.61-3.23,19.78-.75-8.58-5.24-19.58-6.12-29.27-1.34-15.04,7.4-21.23,25.59-13.83,40.63,7.4,15.03,25.6,21.21,40.63,13.81,9.69-4.77,15.71-14.03,16.78-24.02-1.8,6.41-6.21,12.06-12.65,15.23Z"/>
        <polygon class="cls-1" points="131.5 9.74 130.72 0 125.61 8.34 116.11 6.08 122.47 13.5 117.38 21.84 126.4 18.09 132.75 25.5 131.98 15.77 141 12 131.5 9.74"/>
        <g>
          <path class="cls-3" d="m46.52,26.79c-.14,3.96,2.08,5.94,4.36,8.7,3.79,5.33,2.5,7.32-.97,11.03.11-3.04-.42-6.04-3.28-8.93-2.94-3.68-2.36-7.26-.11-10.8"/>
          <path class="cls-3" d="m49.25,21.14c-.13,3.91,1.39,6.76,4.11,8.82,5.55,4.21,3.43,8.41.75,12.27,1.08-3.2-2.28-7.16-4.75-10.3-2.94-3.68-2.36-7.26-.11-10.8"/>
          <path class="cls-5" d="m49.37,46.8l-.55-.03c.15-2.88-.36-5.13-1.57-6.87l.45-.31c1.28,1.85,1.83,4.21,1.67,7.22"/>
          <path class="cls-5" d="m52.29,28.22c-1.65-2.07-2.48-4.48-2.41-6.95h.46c-.07,2.38.73,4.68,2.31,6.67l-.36.29Z"/>
        </g>
        <g>
          <path class="cls-5" d="m107.45,32.95v6.3h-2.86v-6.53c0-.58-.1-1.04-.3-1.4-.26-.5-.74-.75-1.46-.75s-1.3.25-1.69.74c-.38.5-.58,1.2-.58,2.12v5.81h-2.8v-14.46h2.8v5.13c.41-.62.88-1.06,1.41-1.3.53-.25,1.1-.37,1.69-.37.66,0,1.27.11,1.81.34.54.23.99.58,1.33,1.05.3.4.48.81.54,1.24s.1,1.11.1,2.07"/>
          <path class="cls-5" d="m118.99,36.1c-.07.64-.4,1.28-.99,1.94-.92,1.04-2.2,1.56-3.86,1.56-1.36,0-2.57-.44-3.61-1.32-1.04-.88-1.56-2.31-1.56-4.29,0-1.86.47-3.28,1.41-4.27.94-.99,2.16-1.49,3.67-1.49.89,0,1.7.17,2.41.5.72.33,1.31.86,1.77,1.58.42.64.69,1.37.82,2.21.07.49.1,1.2.09,2.13h-7.34c.04,1.08.38,1.83,1.01,2.26.39.27.85.4,1.4.4.58,0,1.05-.16,1.41-.49.2-.18.37-.42.52-.74h2.86Zm-2.78-3.29c-.05-.74-.27-1.3-.67-1.69-.4-.38-.9-.58-1.5-.58-.65,0-1.15.2-1.51.61-.36.41-.58.96-.67,1.65h4.36Z"/>
          <path class="cls-5" d="m126.15,31.11c-1.13,0-1.89.37-2.27,1.1-.22.41-.32,1.05-.32,1.91v5.13h-2.82v-10.73h2.68v1.87c.43-.72.81-1.2,1.13-1.47.53-.44,1.21-.66,2.05-.66.05,0,.1,0,.13,0,.04,0,.12,0,.24.01v2.87c-.18-.02-.33-.03-.47-.04-.14,0-.25,0-.33,0"/>
          <polygon class="cls-5" points="137.96 39.25 134.58 39.25 132.01 34.67 130.84 35.88 130.84 39.25 128.09 39.25 128.09 24.8 130.84 24.8 130.84 32.61 134.34 28.57 137.81 28.57 134.06 32.68 137.96 39.25"/>
          <path class="cls-5" d="m147.87,36.1c-.07.64-.4,1.28-.99,1.94-.92,1.04-2.2,1.56-3.86,1.56-1.36,0-2.57-.44-3.61-1.32-1.04-.88-1.56-2.31-1.56-4.29,0-1.86.47-3.28,1.41-4.27.94-.99,2.16-1.49,3.67-1.49.89,0,1.7.17,2.41.5.72.33,1.31.86,1.77,1.58.42.64.69,1.37.82,2.21.07.49.1,1.2.09,2.13h-7.34c.04,1.08.38,1.83,1.01,2.26.39.27.85.4,1.4.4.58,0,1.05-.16,1.41-.49.2-.18.37-.42.52-.74h2.86Zm-2.78-3.29c-.05-.74-.27-1.3-.67-1.69-.4-.38-.9-.58-1.5-.58-.65,0-1.15.2-1.51.61-.36.41-.58.96-.67,1.65h4.36Z"/>
          <path class="cls-5" d="m156.96,29.02c.84.54,1.32,1.46,1.45,2.78h-2.81c-.04-.36-.14-.65-.31-.86-.31-.38-.83-.57-1.57-.57-.61,0-1.04.09-1.3.29s-.39.41-.39.67c0,.32.14.55.41.7.28.15,1.25.41,2.92.78,1.12.26,1.95.66,2.51,1.19.55.54.83,1.21.83,2.02,0,1.06-.4,1.93-1.19,2.6-.79.67-2.01,1.01-3.67,1.01s-2.93-.36-3.74-1.07c-.8-.71-1.21-1.62-1.21-2.72h2.84c.06.5.19.85.38,1.06.35.37.99.56,1.93.56.55,0,.99-.08,1.31-.25.32-.16.49-.41.49-.74s-.13-.55-.39-.72c-.26-.16-1.24-.45-2.92-.85-1.21-.3-2.07-.68-2.57-1.13-.5-.45-.75-1.09-.75-1.93,0-.99.39-1.84,1.17-2.55.78-.71,1.87-1.07,3.28-1.07s2.43.27,3.28.8"/>
          <path class="cls-5" d="m170.11,24.77v14.49h-2.73v-1.49c-.4.64-.86,1.1-1.37,1.39-.51.29-1.15.43-1.91.43-1.25,0-2.31-.51-3.16-1.52-.86-1.01-1.28-2.31-1.28-3.9,0-1.83.42-3.27,1.26-4.32.84-1.05,1.97-1.57,3.38-1.57.65,0,1.23.14,1.73.43.51.29.92.68,1.23,1.19v-5.12h2.84Zm-7.56,9.19c0,.99.2,1.78.59,2.37.39.6.98.9,1.77.9s1.4-.3,1.81-.89c.41-.59.62-1.35.62-2.29,0-1.31-.33-2.25-.99-2.82-.41-.34-.88-.51-1.42-.51-.82,0-1.42.31-1.81.93-.38.62-.58,1.39-.58,2.31"/>
          <path class="cls-5" d="m179.16,37.74s-.09.13-.2.3c-.11.16-.23.31-.37.43-.44.39-.86.66-1.27.81-.41.14-.89.22-1.44.22-1.59,0-2.66-.57-3.21-1.71-.31-.63-.46-1.56-.46-2.79v-6.47h2.87v6.47c0,.61.07,1.07.22,1.38.26.54.76.82,1.51.82.96,0,1.61-.39,1.97-1.16.18-.42.28-.97.28-1.66v-5.84h2.84v10.73h-2.73v-1.52Z"/>
          <path class="cls-5" d="m188.49,36.44l2.21-7.91h2.98l-3.68,10.55c-.71,2.03-1.27,3.3-1.68,3.78-.41.49-1.24.73-2.48.73-.25,0-.45,0-.6,0-.15,0-.38-.01-.68-.03v-2.24l.35.02c.28.01.54,0,.79-.03.25-.03.46-.11.63-.23.16-.11.32-.34.46-.7.14-.35.2-.57.17-.65l-3.94-11.2h3.12l2.34,7.91Z"/>
          <path class="cls-5" d="m201.97,29.02c.84.54,1.32,1.46,1.45,2.78h-2.81c-.04-.36-.14-.65-.31-.86-.31-.38-.83-.57-1.57-.57-.61,0-1.04.09-1.3.29-.26.19-.39.41-.39.67,0,.32.14.55.41.7.28.15,1.25.41,2.92.78,1.12.26,1.95.66,2.51,1.19.55.54.83,1.21.83,2.02,0,1.06-.4,1.93-1.19,2.6-.79.67-2.01,1.01-3.67,1.01s-2.93-.36-3.74-1.07c-.8-.71-1.21-1.62-1.21-2.72h2.84c.06.5.19.85.38,1.06.35.37.99.56,1.93.56.55,0,.99-.08,1.31-.25.32-.16.49-.41.49-.74s-.13-.55-.39-.72c-.26-.16-1.24-.45-2.92-.85-1.21-.3-2.07-.68-2.57-1.13-.5-.45-.75-1.09-.75-1.93,0-.99.39-1.84,1.17-2.55.78-.71,1.87-1.07,3.28-1.07s2.43.27,3.28.8"/>
          <path class="cls-5" d="m212.2,37.74s-.09.13-.2.3c-.11.16-.23.31-.37.43-.44.39-.86.66-1.27.81-.41.14-.89.22-1.44.22-1.59,0-2.66-.57-3.21-1.71-.31-.63-.46-1.56-.46-2.79v-6.47h2.87v6.47c0,.61.07,1.07.22,1.38.26.54.76.82,1.51.82.96,0,1.61-.39,1.97-1.16.18-.42.28-.97.28-1.66v-5.84h2.84v10.73h-2.73v-1.52Z"/>
          <path class="cls-5" d="m222.2,30.6c-.95,0-1.6.4-1.96,1.21-.18.43-.28.97-.28,1.63v5.81h-2.8v-10.71h2.71v1.56c.36-.55.7-.95,1.02-1.19.58-.43,1.31-.65,2.2-.65,1.11,0,2.02.29,2.72.87.71.58,1.06,1.54,1.06,2.89v7.22h-2.87v-6.53c0-.56-.08-1-.23-1.3-.28-.55-.8-.83-1.57-.83"/>
          <rect class="cls-5" x="205.25" y="47.51" width="1.49" height="1.46"/>
          <path class="cls-5" d="m212.44,45.54h-1.43c-.03-.2-.09-.38-.2-.54-.16-.22-.4-.32-.73-.32-.47,0-.79.23-.97.7-.09.25-.14.58-.14.99s.05.71.14.95c.17.44.48.67.94.67.33,0,.56-.09.7-.26.14-.18.22-.41.25-.69h1.43c-.03.43-.19.83-.46,1.21-.44.61-1.09.92-1.95.92s-1.49-.26-1.9-.77-.61-1.17-.61-1.99c0-.92.22-1.63.67-2.14.45-.51,1.07-.76,1.85-.76.67,0,1.22.15,1.65.45.43.3.68.83.76,1.59"/>
          <path class="cls-5" d="m217.69,44.3c.45.57.68,1.23.68,2.01s-.23,1.46-.68,2.01c-.45.56-1.14.84-2.05.84s-1.6-.28-2.05-.84c-.45-.56-.68-1.23-.68-2.01s.23-1.44.68-2.01c.45-.57,1.14-.85,2.05-.85s1.6.28,2.05.85m-2.06.33c-.41,0-.72.14-.94.43-.22.29-.33.7-.33,1.24s.11.95.33,1.24c.22.29.54.44.94.44s.72-.15.94-.44c.22-.29.33-.7.33-1.24s-.11-.95-.33-1.24c-.22-.29-.53-.43-.94-.43"/>
          <path class="cls-5" d="m222.19,45.09c-.12-.26-.35-.39-.69-.39-.4,0-.67.13-.8.39-.08.15-.11.37-.11.66v3.22h-1.42v-5.34h1.36v.78c.17-.28.34-.48.49-.59.27-.21.62-.31,1.05-.31.41,0,.74.09.99.27.2.17.36.38.46.64.18-.31.41-.54.68-.69.29-.15.61-.22.96-.22.24,0,.47.05.7.14.23.09.44.25.62.48.15.19.25.42.3.69.03.18.05.44.05.79v3.37h-1.44v-3.4c0-.2-.03-.37-.1-.5-.12-.25-.35-.37-.69-.37-.39,0-.65.16-.8.48-.08.17-.11.37-.11.61v3.18h-1.41v-3.18c0-.32-.03-.55-.1-.69"/>
        </g>
      </g>
    </g>
  </g>
</svg>