<svg xmlns="http://www.w3.org/2000/svg" width="12.7" height="12.705" viewBox="0 0 12.7 12.705">
    <g id="Group_11488" data-name="Group 11488" transform="translate(-309.341 -447.333)">
      <rect id="Rectangle_5931" data-name="Rectangle 5931" width="2.622" height="8.47" transform="translate(309.594 451.568)" fill="#5088f0"/>
      <path id="Path_11551" data-name="Path 11551" d="M68.057,66.227a1.563,1.563,0,1,0-1.55-1.563,1.557,1.557,0,0,0,1.55,1.563" transform="translate(242.834 384.232)" fill="#5088f0"/>
      <g id="Group_11487" data-name="Group 11487">
        <path id="Path_11552" data-name="Path 11552" d="M75.857,73.357c0-1.191.548-1.9,1.6-1.9.964,0,1.427.681,1.427,1.9V77.8h2.61V72.441c0-2.269-1.286-3.366-3.082-3.366a2.953,2.953,0,0,0-2.552,1.4V69.333H73.342V77.8h2.515Z" transform="translate(240.549 382.234)" fill="#5088f0"/>
      </g>
    </g>
  </svg>
  