<svg id="Icon_ionic-ios-mail" data-name="Icon ionic-ios-mail" xmlns="http://www.w3.org/2000/svg" width="14.762" height="10.22" viewBox="0 0 14.762 10.22">
    <path id="Path_11539" data-name="Path 11539" d="M18.016,10.336,14.2,14.225a.069.069,0,0,0,0,.1L16.87,17.17a.46.46,0,0,1,0,.653.463.463,0,0,1-.653,0l-2.661-2.835a.073.073,0,0,0-.1,0l-.649.66a2.857,2.857,0,0,1-2.037.859,2.914,2.914,0,0,1-2.079-.884l-.625-.635a.073.073,0,0,0-.1,0L5.3,17.823a.463.463,0,0,1-.653,0,.46.46,0,0,1,0-.653l2.672-2.846a.076.076,0,0,0,0-.1L3.5,10.336a.07.07,0,0,0-.121.05v7.782A1.139,1.139,0,0,0,4.511,19.3H17a1.139,1.139,0,0,0,1.136-1.136V10.385A.071.071,0,0,0,18.016,10.336Z" transform="translate(-3.375 -9.083)" fill="#707071"/>
    <path id="Path_11540" data-name="Path 11540" d="M11.177,14.372a1.929,1.929,0,0,0,1.387-.582l5.568-5.667a1.115,1.115,0,0,0-.7-.248H4.928a1.108,1.108,0,0,0-.7.248L9.793,13.79A1.929,1.929,0,0,0,11.177,14.372Z" transform="translate(-3.796 -7.875)" fill="#707071"/>
  </svg>
  