<svg xmlns="http://www.w3.org/2000/svg" width="14.055" height="11.422" viewBox="0 0 14.055 11.422">
    <path id="Path_11549" data-name="Path 11549" d="M9.641,21.666a8.2,8.2,0,0,0,12.616-7.282A5.847,5.847,0,0,0,23.7,12.891a5.75,5.75,0,0,1-1.656.454,2.887,2.887,0,0,0,1.267-1.595,5.789,5.789,0,0,1-1.83.7,2.885,2.885,0,0,0-4.914,2.629,8.182,8.182,0,0,1-5.943-3.013,2.887,2.887,0,0,0,.893,3.85,2.866,2.866,0,0,1-1.307-.361,2.888,2.888,0,0,0,2.313,2.864,2.9,2.9,0,0,1-1.3.049,2.886,2.886,0,0,0,2.694,2,5.793,5.793,0,0,1-4.269,1.194" transform="translate(-9.641 -11.54)" fill="#5088f0"/>
  </svg>
  