<svg xmlns="http://www.w3.org/2000/svg" width="14.713" height="14.713" viewBox="0 0 14.713 14.713">
    <path id="Icon_ionic-logo-whatsapp" data-name="Icon ionic-logo-whatsapp" d="M9.74,2.25A7.2,7.2,0,0,0,2.517,9.417a7.093,7.093,0,0,0,1.036,3.7l-1.3,3.845,4-1.27A7.235,7.235,0,0,0,16.963,9.417,7.2,7.2,0,0,0,9.74,2.25Zm3.592,9.889a1.866,1.866,0,0,1-1.277.823c-.339.018-.348.263-2.2-.54A7.536,7.536,0,0,1,6.814,9.543a3.542,3.542,0,0,1-.681-1.92,2.047,2.047,0,0,1,.7-1.5.707.707,0,0,1,.5-.211c.145,0,.24,0,.347,0s.269-.022.409.349.474,1.286.517,1.379a.335.335,0,0,1,0,.321,1.254,1.254,0,0,1-.2.3c-.1.1-.2.231-.289.31s-.2.183-.1.37a5.527,5.527,0,0,0,.978,1.3,5.039,5.039,0,0,0,1.448.963c.181.1.289.088.4-.031s.481-.517.611-.7.252-.144.418-.076,1.056.544,1.237.642.3.149.345.227A1.517,1.517,0,0,1,13.331,12.139Z" transform="translate(-2.25 -2.25)" fill="#26c463"/>
  </svg>
  